<svg width="30" height="30" viewBox="0 0 30 30" fill="none" xmlns="http://www.w3.org/2000/svg">
<path d="M10.625 17.5C11.0394 17.5 11.4368 17.3354 11.7299 17.0424C12.0229 16.7493 12.1875 16.3519 12.1875 15.9375C12.1875 15.5231 12.0229 15.1257 11.7299 14.8326C11.4368 14.5396 11.0394 14.375 10.625 14.375C10.2106 14.375 9.81317 14.5396 9.52015 14.8326C9.22712 15.1257 9.0625 15.5231 9.0625 15.9375C9.0625 16.3519 9.22712 16.7493 9.52015 17.0424C9.81317 17.3354 10.2106 17.5 10.625 17.5ZM10.625 21.875C11.0394 21.875 11.4368 21.7104 11.7299 21.4174C12.0229 21.1243 12.1875 20.7269 12.1875 20.3125C12.1875 19.8981 12.0229 19.5007 11.7299 19.2076C11.4368 18.9146 11.0394 18.75 10.625 18.75C10.2106 18.75 9.81317 18.9146 9.52015 19.2076C9.22712 19.5007 9.0625 19.8981 9.0625 20.3125C9.0625 20.7269 9.22712 21.1243 9.52015 21.4174C9.81317 21.7104 10.2106 21.875 10.625 21.875ZM16.5625 15.9375C16.5625 16.3519 16.3979 16.7493 16.1049 17.0424C15.8118 17.3354 15.4144 17.5 15 17.5C14.5856 17.5 14.1882 17.3354 13.8951 17.0424C13.6021 16.7493 13.4375 16.3519 13.4375 15.9375C13.4375 15.5231 13.6021 15.1257 13.8951 14.8326C14.1882 14.5396 14.5856 14.375 15 14.375C15.4144 14.375 15.8118 14.5396 16.1049 14.8326C16.3979 15.1257 16.5625 15.5231 16.5625 15.9375ZM15 21.875C15.4144 21.875 15.8118 21.7104 16.1049 21.4174C16.3979 21.1243 16.5625 20.7269 16.5625 20.3125C16.5625 19.8981 16.3979 19.5007 16.1049 19.2076C15.8118 18.9146 15.4144 18.75 15 18.75C14.5856 18.75 14.1882 18.9146 13.8951 19.2076C13.6021 19.5007 13.4375 19.8981 13.4375 20.3125C13.4375 20.7269 13.6021 21.1243 13.8951 21.4174C14.1882 21.7104 14.5856 21.875 15 21.875ZM20.9375 15.9375C20.9375 16.3519 20.7729 16.7493 20.4799 17.0424C20.1868 17.3354 19.7894 17.5 19.375 17.5C18.9606 17.5 18.5632 17.3354 18.2701 17.0424C17.9771 16.7493 17.8125 16.3519 17.8125 15.9375C17.8125 15.5231 17.9771 15.1257 18.2701 14.8326C18.5632 14.5396 18.9606 14.375 19.375 14.375C19.7894 14.375 20.1868 14.5396 20.4799 14.8326C20.7729 15.1257 20.9375 15.5231 20.9375 15.9375Z" fill="#757575"/>
<path fill-rule="evenodd" clip-rule="evenodd" d="M10 4.0625C10.2486 4.0625 10.4871 4.16127 10.6629 4.33709C10.8387 4.5129 10.9375 4.75136 10.9375 5V5.9375H19.0625V5C19.0625 4.75136 19.1613 4.5129 19.3371 4.33709C19.5129 4.16127 19.7514 4.0625 20 4.0625C20.2486 4.0625 20.4871 4.16127 20.6629 4.33709C20.8387 4.5129 20.9375 4.75136 20.9375 5V5.9475C21.1275 5.9525 21.3046 5.96167 21.4687 5.975C21.9437 6.0125 22.3887 6.0975 22.81 6.3125C23.4569 6.64209 23.9829 7.16806 24.3125 7.815C24.5275 8.23625 24.6125 8.68125 24.65 9.15625C24.6875 9.6125 24.6875 10.1688 24.6875 10.8375V20.4125C24.6875 21.0812 24.6875 21.6375 24.65 22.0937C24.6125 22.5687 24.5275 23.0137 24.3125 23.435C23.9832 24.0818 23.4577 24.6077 22.8113 24.9375C22.3888 25.1525 21.9437 25.2375 21.4687 25.275C21.0125 25.3125 20.4563 25.3125 19.7888 25.3125H10.2125C9.54375 25.3125 8.9875 25.3125 8.53125 25.275C8.05625 25.2375 7.61125 25.1525 7.19 24.9375C6.54344 24.6086 6.01751 24.0835 5.6875 23.4375C5.4725 23.015 5.3875 22.57 5.35 22.095C5.3125 21.6388 5.3125 21.0825 5.3125 20.415V10.8375C5.3125 10.1688 5.3125 9.6125 5.35 9.15625C5.3875 8.68125 5.4725 8.23625 5.6875 7.815C6.01709 7.16806 6.54306 6.64209 7.19 6.3125C7.61125 6.0975 8.05625 6.0125 8.53125 5.975C8.69542 5.96167 8.8725 5.9525 9.0625 5.9475V5C9.0625 4.87689 9.08675 4.75498 9.13386 4.64123C9.18098 4.52749 9.25003 4.42414 9.33709 4.33709C9.42414 4.25003 9.52749 4.18098 9.64123 4.13386C9.75498 4.08675 9.87689 4.0625 10 4.0625ZM9.0625 8.125V7.8225C8.93609 7.82639 8.8098 7.83347 8.68375 7.84375C8.325 7.8725 8.15375 7.925 8.04125 7.9825C7.74677 8.13238 7.50738 8.37177 7.3575 8.66625C7.3 8.77875 7.2475 8.95 7.21875 9.30875C7.18875 9.67875 7.1875 10.1587 7.1875 10.875V11.5625H22.8125V10.875C22.8125 10.16 22.8125 9.67875 22.7813 9.30875C22.7525 8.95 22.7 8.77875 22.6425 8.66625C22.4926 8.37177 22.2532 8.13238 21.9587 7.9825C21.8462 7.925 21.675 7.8725 21.315 7.84375C21.1894 7.8335 21.0635 7.82641 20.9375 7.8225V8.125C20.9375 8.37364 20.8387 8.6121 20.6629 8.78791C20.4871 8.96373 20.2486 9.0625 20 9.0625C19.7514 9.0625 19.5129 8.96373 19.3371 8.78791C19.1613 8.6121 19.0625 8.37364 19.0625 8.125V7.8125H10.9375V8.125C10.9375 8.37364 10.8387 8.6121 10.6629 8.78791C10.4871 8.96373 10.2486 9.0625 10 9.0625C9.75136 9.0625 9.5129 8.96373 9.33709 8.78791C9.16127 8.6121 9.0625 8.37364 9.0625 8.125ZM22.8125 12.8125H7.1875V20.375C7.1875 21.09 7.1875 21.5713 7.21875 21.94C7.2475 22.3 7.3 22.4712 7.3575 22.5837C7.5075 22.8787 7.74625 23.1175 8.04125 23.2675C8.15375 23.325 8.325 23.3775 8.68375 23.4063C9.05375 23.4363 9.53375 23.4375 10.25 23.4375H19.75C20.465 23.4375 20.9463 23.4375 21.315 23.4063C21.675 23.3775 21.8462 23.325 21.9587 23.2675C22.2532 23.1176 22.4926 22.8782 22.6425 22.5837C22.7 22.4712 22.7525 22.3 22.7813 21.94C22.8113 21.5713 22.8125 21.09 22.8125 20.375V12.8125Z" fill="#757575"/>
<path fill-rule="evenodd" clip-rule="evenodd" d="M12.1875 9.6875C12.1875 9.43886 12.2863 9.2004 12.4621 9.02459C12.6379 8.84877 12.8764 8.75 13.125 8.75H16.875C17.1236 8.75 17.3621 8.84877 17.5379 9.02459C17.7137 9.2004 17.8125 9.43886 17.8125 9.6875C17.8125 9.93614 17.7137 10.1746 17.5379 10.3504C17.3621 10.5262 17.1236 10.625 16.875 10.625H13.125C12.8764 10.625 12.6379 10.5262 12.4621 10.3504C12.2863 10.1746 12.1875 9.93614 12.1875 9.6875Z" fill="#757575"/>
</svg>
