<svg width="26" height="19" viewBox="0 0 26 19" fill="none" xmlns="http://www.w3.org/2000/svg">
<path d="M1.75023 18.7498H24.2502C24.478 18.7491 24.7013 18.6862 24.8961 18.568C25.0908 18.4499 25.2497 18.2808 25.3555 18.0791C25.4613 17.8773 25.5101 17.6506 25.4966 17.4232C25.4831 17.1958 25.4079 16.9763 25.279 16.7885L14.029 0.538516C13.5627 -0.135234 12.4402 -0.135234 11.9727 0.538516L0.722729 16.7885C0.59251 16.9759 0.516147 17.1955 0.501935 17.4233C0.487724 17.651 0.536209 17.8784 0.642121 18.0805C0.748034 18.2827 0.907324 18.452 1.10268 18.5699C1.29804 18.6879 1.522 18.7501 1.75023 18.7498Z" fill="black"/>
</svg>
