<svg width="30" height="30" viewBox="0 0 30 30" fill="none" xmlns="http://www.w3.org/2000/svg">
<path d="M7.89355 7.72043C7.58105 6.92293 7.59355 6.01168 7.7323 5.17793C8.68724 5.46488 9.58425 5.91761 10.3823 6.51543C10.7323 6.78293 11.191 6.86918 11.6185 6.74043C12.7153 6.41146 13.8547 6.24634 14.9998 6.25043C16.201 6.25043 17.3423 6.42543 18.3785 6.73918C18.806 6.86918 19.2648 6.78168 19.6135 6.51418C20.4112 5.91649 21.3078 5.46376 22.2623 5.17668C22.401 6.01043 22.4123 6.92168 22.1023 7.71793C21.9148 8.19793 22.0085 8.75043 22.3623 9.14293C23.2673 10.1467 23.7498 11.3004 23.7498 12.5004C23.7498 15.1429 21.2873 17.7342 17.3323 18.5229C16.3423 18.7204 15.956 19.9667 16.7135 20.6804C17.1998 21.1379 17.4998 21.7829 17.4998 22.5004V26.2504C17.4998 26.582 17.6315 26.8999 17.8659 27.1343C18.1003 27.3687 18.4183 27.5004 18.7498 27.5004C19.0813 27.5004 19.3993 27.3687 19.6337 27.1343C19.8681 26.8999 19.9998 26.582 19.9998 26.2504V22.5004C19.9998 21.7879 19.8498 21.1104 19.5823 20.4967C23.3535 19.1879 26.2498 16.2417 26.2498 12.5004C26.2498 10.8167 25.6448 9.26918 24.641 7.97293C24.9035 6.94793 24.8798 5.91543 24.7798 5.12293C24.691 4.41293 24.5673 3.48293 24.0673 2.92793C23.3235 2.10418 22.0923 2.58918 21.2173 2.88793C20.2782 3.20445 19.3851 3.64367 18.561 4.19418C17.3974 3.89678 16.2008 3.74768 14.9998 3.75043C13.7573 3.75043 12.5585 3.90668 11.436 4.19543C10.612 3.64492 9.71888 3.2057 8.7798 2.88918C7.9048 2.58918 6.6723 2.10418 5.92855 2.92793C5.41855 3.49293 5.3123 4.34918 5.22105 5.07668L5.2148 5.12418C5.1148 5.91793 5.0923 6.95168 5.3548 7.97793C4.3548 9.27293 3.7498 10.8179 3.7498 12.5004C3.7498 16.2404 6.64605 19.1879 10.4173 20.4967C10.1448 21.1209 10.0027 21.7943 9.9998 22.4754L9.7898 22.5179C8.89355 22.6417 8.3198 22.5304 7.9298 22.3654C6.9798 21.9629 6.4898 20.9492 5.8923 20.1742C5.5198 19.6929 4.9773 19.0917 4.1448 18.8142C3.98902 18.7623 3.82455 18.7416 3.66077 18.7533C3.497 18.765 3.33713 18.8088 3.1903 18.8823C2.89376 19.0307 2.66831 19.2908 2.56355 19.6054C2.45879 19.92 2.4833 20.2634 2.63169 20.5599C2.78007 20.8565 3.04019 21.0819 3.3548 21.1867C4.0523 21.4192 4.5348 22.6142 4.9773 23.1442C5.44355 23.7042 6.06355 24.2892 6.9523 24.6667C7.8048 25.0292 8.80605 25.1579 9.9998 25.0117V26.2504C9.9998 26.582 10.1315 26.8999 10.3659 27.1343C10.6003 27.3687 10.9183 27.5004 11.2498 27.5004C11.5813 27.5004 11.8993 27.3687 12.1337 27.1343C12.3681 26.8999 12.4998 26.582 12.4998 26.2504V22.5004C12.4998 21.7829 12.7998 21.1379 13.286 20.6804C14.0448 19.9654 13.6573 18.7204 12.6673 18.5229C8.71105 17.7342 6.2498 15.1429 6.2498 12.5004C6.2498 11.3029 6.73105 10.1492 7.6348 9.14543C7.98855 8.75293 8.08105 8.20043 7.89355 7.72043Z" fill="black"/>
</svg>
